<svg width="100" height="100" xmlns="http://www.w3.org/2000/svg" xmlns:svg="http://www.w3.org/2000/svg">
  <path d="m53.86,11.75c6.41,-5.65 16.65,-6.21 23.69,-1.4c4.39,2.83 7.44,7.55 8.47,12.65c1.46,6.86 -1.25,14.24 -6.47,18.84c-2.96,-5.85 -7.09,-11.4 -13.22,-14.17c-6.04,-3 -13.16,-3.15 -19.54,-1.18c0.26,-5.6 2.71,-11.14 7.07,-14.74z" fill="#16aa9d"/>
  <path d="m46.79,26.49c6.38,-1.97 13.5,-1.82 19.54,1.18c6.13,2.77 10.26,8.32 13.22,14.17l0.01,0.02c-5.97,5.05 -14.97,6.27 -21.91,2.55c-6.66,-3.28 -10.88,-10.55 -10.86,-17.92z" fill="#73beb6"/>
  <path d="m12.05,40.96c5.05,-7.33 15.23,-10.03 23.41,-6.77c-3.45,5.27 -6.09,11.38 -5.61,17.82c0.54,6.54 3.29,13.15 8.57,17.26c-6.69,4.56 -16.29,3.92 -22.56,-1.11c-8.28,-6.14 -10.13,-19.04 -3.81,-27.2z" fill="#76beb5"/>
  <path d="m35.46,34.19c6.37,2.72 11.29,8.78 12.12,15.72c1.08,7.48 -2.54,15.58 -9.16,19.36c-5.28,-4.11 -8.03,-10.72 -8.57,-17.26c-0.48,-6.44 2.16,-12.55 5.61,-17.82z" fill="#afd6d1"/>
  <path d="m51.13,75.06c-1.75,-10.18 6.64,-20.67 16.89,-21.62c3.72,-0.28 7.73,-0.16 11.05,1.75c1.27,4.07 -1.44,7.96 -3.77,11.06c-5.61,6.89 -15.35,11.67 -24.17,8.81z" fill="#c5e1dd"/>
  <path d="m79.07,55.19c5.56,2.47 9.64,7.82 10.87,13.75c1.69,7.51 -1.62,15.83 -7.94,20.19c-6.45,4.68 -15.83,4.78 -22.4,0.29c-4.68,-3.25 -8.26,-8.57 -8.47,-14.36c8.82,2.86 18.56,-1.92 24.17,-8.81c2.33,-3.1 5.04,-6.99 3.77,-11.06z" fill="#afd6d1"/>
</svg>
